<?xml version="1.0" encoding="UTF-8"?>
<svg width="512px" height="512px" viewBox="0 0 512 512" version="1.1" xmlns="http://www.w3.org/2000/svg" xmlns:xlink="http://www.w3.org/1999/xlink">
    <!-- Generator: Sketch 51.3 (57544) - http://www.bohemiancoding.com/sketch -->
    <title>Bell</title>
    <desc>Created with Sketch.</desc>
    <defs></defs>
    <g id="Bell" stroke="none" stroke-width="1" fill="none" fill-rule="evenodd">
        <g id="bell" transform="translate(42.000000, 24.000000)" fill="#4583F1" fill-rule="nonzero">
            <path d="M387.494473,316.849365 L387.466081,316.849365 C374.089638,316.84227 366.537219,309.90303 362.214453,293.661804 C357.795862,277.051621 357.646801,252.962952 357.490642,227.458763 C357.302542,196.558571 357.089597,161.535988 349.405862,130.213623 C348.4973,126.509857 344.753033,124.242897 341.047805,125.1511 C337.346125,126.059303 335.07827,129.798546 335.983283,133.502312 C343.283718,163.245964 343.489564,197.406464 343.674116,227.543907 C343.837373,253.952751 343.986434,278.896409 348.859306,297.209473 C350.9781,305.173988 354.016103,311.719436 357.941374,316.849365 L70.0586259,316.849365 C73.9838969,311.719436 77.0219002,305.173988 79.1406942,297.209473 C84.013566,278.896409 84.1661762,253.952751 84.3258841,227.543907 C84.5707697,187.224656 84.8511464,141.527138 101.354319,106.554222 C119.930146,67.1857448 156.776583,48.0460741 214.001774,48.0460741 C245.428782,48.0460741 271.145338,53.9493945 290.434528,65.5963893 C307.161292,75.6930542 319.441071,90.0433729 327.976583,109.466858 C329.50978,112.957764 333.587661,114.547119 337.079945,113.010979 C340.572229,111.478386 342.162212,107.405663 340.629014,103.911209 C331.042978,82.1001439 316.559227,65.2309801 297.578805,53.7720106 C285.462282,46.4567187 271.234064,41.1813354 255.029014,37.9671483 C253.396443,16.7627332 235.626253,0 214.001774,0 C192.377296,0 174.603557,16.7662816 172.981633,37.9742432 C157.521887,41.0358813 143.854422,45.9706883 132.124748,52.7644727 C113.250799,63.6983874 98.6925162,79.8154445 88.8544964,100.661545 C71.0523653,138.390999 70.7613412,185.709801 70.509358,227.458763 C70.3531989,252.962952 70.2076873,277.051621 65.7855466,293.661804 C61.4627808,309.90303 53.9103616,316.84227 40.5339191,316.849365 L40.5055265,316.849365 C18.1712343,316.849365 0,335.013428 0,357.342453 C0,379.667931 18.1712343,397.831993 40.5055265,397.831993 L84.2336088,397.831993 C88.0488575,397.831993 91.1436458,394.738426 91.1436458,390.924683 C91.1436458,387.110939 88.0488575,384.02092 84.2336088,384.02092 L40.5055265,384.02092 C25.7910861,384.02092 13.8165262,372.051086 13.8165262,357.342453 C13.8165262,342.63382 25.7875363,330.667534 40.5019777,330.663987 L40.5055265,330.663987 L40.5303702,330.663987 L387.466081,330.663987 L387.490924,330.663987 L387.498022,330.663987 C402.208914,330.667534 414.179924,342.63382 414.179924,357.342453 C414.179924,372.051086 402.205365,384.02092 387.490924,384.02092 L111.87021,384.02092 C108.054961,384.02092 104.963722,387.110939 104.963722,390.924683 C104.963722,394.738426 108.054961,397.831993 111.87021,397.831993 L140.230822,397.831993 C143.726655,435.45147 175.46953,465 214.001774,465 C252.530469,465 284.273344,435.45147 287.769178,397.831993 L387.494473,397.831993 C409.828766,397.831993 428,379.667931 428,357.342453 C428,335.013428 409.828766,316.849365 387.494473,316.849365 Z M214.001774,13.8110731 C227.232704,13.8110731 238.298702,23.2585144 240.807894,35.7569506 C232.325618,34.7565076 223.39616,34.2350002 214.001774,34.2350002 C204.607388,34.2350002 195.67793,34.7529602 187.199203,35.7534032 C189.708396,23.254967 200.770844,13.8110731 214.001774,13.8110731 Z M214.001774,451.188927 C183.09648,451.188927 157.560927,427.816887 154.121878,397.831993 L273.878121,397.831993 C270.439073,427.816887 244.90352,451.188927 214.001774,451.188927 Z" id="Shape"></path>
            <path d="M111.87303,194 C115.669797,194 118.749592,190.913943 118.749592,187.109457 C118.749592,155.2261 126.929415,128.017836 143.05949,106.238484 C155.029017,90.0791533 167.196328,83.0647434 167.464751,82.9090249 C170.774118,81.0651769 171.974955,76.882012 170.141912,73.5588389 C168.301805,70.2285863 164.120064,69.0217684 160.79657,70.8585388 C160.210278,71.1841319 146.291157,79.0160631 132.502715,97.3766868 C119.957493,114.084571 105,143.218082 105,187.109457 C105,190.913943 108.076264,194 111.87303,194 Z" id="Shape"></path>
        </g>
        <rect id="Rectangle" fill="#4583F1" x="147" y="231" width="15" height="33" rx="7.5"></rect>
    </g>
</svg>