<?xml version="1.0" encoding="UTF-8"?>
<svg width="512px" height="512px" viewBox="0 0 512 512" version="1.1" xmlns="http://www.w3.org/2000/svg" xmlns:xlink="http://www.w3.org/1999/xlink">
    <!-- Generator: Sketch 51.3 (57544) - http://www.bohemiancoding.com/sketch -->
    <title>Calendar</title>
    <desc>Created with Sketch.</desc>
    <defs></defs>
    <g id="Calendar" stroke="none" stroke-width="1" fill="none" fill-rule="evenodd">
        <g id="calendar" transform="translate(27.000000, 35.000000)" fill="#4583F1" fill-rule="nonzero">
            <path d="M6.73706459,326 C10.4564857,326 13.4741292,323.001681 13.4741292,319.298286 L13.4741292,124.10737 L411.525871,124.10737 L411.525871,197.773868 C411.525871,201.477263 414.543514,204.475583 418.262935,204.475583 C421.985866,204.475583 425,201.477263 425,197.773868 L425,65.3277515 C425,42.8595568 406.623955,24.5799325 384.040753,24.5799325 L366.373502,24.5799325 L366.373502,16.2795807 C366.373502,7.30207609 359.032909,0 350.00805,0 L337.491848,0 C328.470497,0 321.129904,7.30207609 321.129904,16.2795807 L321.129904,24.5799325 L276.447726,24.5799325 L276.447726,16.2795807 C276.447726,7.30207609 269.107132,0 260.082273,0 L247.56607,0 C238.54472,0 231.204127,7.30207609 231.204127,16.2795807 L231.204127,24.5799325 L186.51844,24.5799325 L186.51844,16.2795807 C186.51844,7.30207609 179.177847,0 170.152988,0 L157.640294,0 C148.615434,0 141.274841,7.30207609 141.274841,16.2795807 L141.274841,24.5799325 L96.5926636,24.5799325 L96.5926636,16.2795807 C96.5926636,7.30207609 89.2520703,0 80.2272108,0 L67.7145165,0 C58.6896579,0 51.3490637,7.30207609 51.3490637,16.2795807 L51.3490637,24.5799325 L40.9627558,24.5799325 C18.3760452,24.5799325 0,42.8595568 0,65.3277515 L0,319.298286 C0,323.001681 3.01764352,326 6.73706459,326 Z M334.604033,16.2795807 C334.604033,14.6949041 335.902321,13.4034284 337.495356,13.4034284 L350.011559,13.4034284 C351.604594,13.4034284 352.899373,14.6949041 352.899373,16.2795807 L352.899373,48.8387422 C352.899373,50.4234188 351.604594,51.7148945 350.011559,51.7148945 L337.495356,51.7148945 C335.902321,51.7148945 334.604033,50.426909 334.604033,48.8387422 L334.604033,16.2795807 Z M244.678256,16.2795807 C244.678256,14.6949041 245.973035,13.4034284 247.56607,13.4034284 L260.082273,13.4034284 C261.675309,13.4034284 262.973597,14.6949041 262.973597,16.2795807 L262.973597,48.8387422 C262.973597,50.4234188 261.675309,51.7148945 260.082273,51.7148945 L247.56607,51.7148945 C245.973035,51.7148945 244.678256,50.426909 244.678256,48.8387422 L244.678256,16.2795807 Z M154.748971,16.2795807 C154.748971,14.6949041 156.047259,13.4034284 157.640294,13.4034284 L170.156496,13.4034284 C171.749532,13.4034284 173.04782,14.6949041 173.04782,16.2795807 L173.04782,48.8387422 C173.04782,50.4234188 171.749532,51.7148945 170.156496,51.7148945 L157.640294,51.7148945 C156.047259,51.7148945 154.748971,50.426909 154.748971,48.8387422 L154.748971,16.2795807 Z M64.8231929,16.2795807 C64.8231929,14.6949041 66.1214819,13.4034284 67.7145165,13.4034284 L80.2307195,13.4034284 C81.823755,13.4034284 83.1185344,14.6949041 83.1185344,16.2795807 L83.1185344,48.8387422 C83.1185344,50.4234188 81.823755,51.7148945 80.2307195,51.7148945 L67.7145165,51.7148945 C66.1214819,51.7148945 64.8231929,50.426909 64.8231929,48.8387422 L64.8231929,16.2795807 Z M40.9627558,37.9833609 L51.3490637,37.9833609 L51.3490637,48.8387422 C51.3490637,57.8162468 58.6896579,65.1183229 67.7145165,65.1183229 L80.2307195,65.1183229 C89.2520703,65.1183229 96.5926636,57.8162468 96.5926636,48.8387422 L96.5926636,37.9833609 L141.27835,37.9833609 L141.27835,48.8387422 C141.27835,57.8162468 148.618943,65.1183229 157.640294,65.1183229 L170.156496,65.1183229 C179.181356,65.1183229 186.521949,57.8162468 186.521949,48.8387422 L186.521949,37.9833609 L231.204127,37.9833609 L231.204127,48.8387422 C231.204127,57.8162468 238.54472,65.1183229 247.56958,65.1183229 L260.085782,65.1183229 C269.107132,65.1183229 276.447726,57.8162468 276.447726,48.8387422 L276.447726,37.9833609 L321.129904,37.9833609 L321.129904,48.8387422 C321.129904,57.8162468 328.470497,65.1183229 337.495356,65.1183229 L350.011559,65.1183229 C359.032909,65.1183229 366.373502,57.8162468 366.373502,48.8387422 L366.373502,37.9833609 L384.040753,37.9833609 C399.199148,37.9833609 411.529379,50.2488945 411.529379,65.3277515 L411.529379,110.703941 L13.4741292,110.703941 L13.4741292,65.3277515 C13.4741292,50.2488945 25.8043605,37.9833609 40.9627558,37.9833609 Z" id="Shape"></path>
            <path d="M75.3448873,387.7318 L17.3136918,387.7318 C15.1057197,387.7318 13.3102253,385.941976 13.3102253,383.740974 L13.3102253,349.6341 C13.3102253,345.968069 10.3292895,343 6.65511267,343 C2.98093588,343 0,345.968069 0,349.6341 L0,383.740974 C0,393.256762 7.7677641,401 17.3136918,401 L75.3448873,401 C79.0190641,401 82,398.028476 82,394.3659 C82,390.699869 79.0190641,387.7318 75.3448873,387.7318 Z" id="Shape"></path>
            <path d="M74.6085219,144 L52.3914781,144 C48.8628496,144 46,147.135417 46,151 C46,154.868229 48.8628496,158 52.3914781,158 L74.6085219,158 C78.1371504,158 81,154.868229 81,151 C81,147.135417 78.1371504,144 74.6085219,144 Z" id="Shape"></path>
            <path d="M123.391478,158 L145.608522,158 C149.137151,158 152,154.868229 152,151 C152,147.135417 149.137151,144 145.608522,144 L123.391478,144 C119.862849,144 117,147.135417 117,151 C117,154.868229 119.862849,158 123.391478,158 Z" id="Shape"></path>
            <path d="M195.392086,158 L217.607914,158 C221.136878,158 224,154.868229 224,151 C224,147.135417 221.136878,144 217.607914,144 L195.392086,144 C191.859793,144 189,147.135417 189,151 C189,154.868229 191.859793,158 195.392086,158 Z" id="Shape"></path>
            <path d="M266.391478,158 L288.608522,158 C292.137151,158 295,154.868229 295,151 C295,147.135417 292.137151,144 288.608522,144 L266.391478,144 C262.86285,144 260,147.135417 260,151 C260,154.868229 262.86285,158 266.391478,158 Z" id="Shape"></path>
            <path d="M360.607914,144 L338.392086,144 C334.859792,144 332,147.135417 332,151 C332,154.868229 334.859792,158 338.392086,158 L360.607914,158 C364.136878,158 367,154.868229 367,151 C367,147.135417 364.136878,144 360.607914,144 Z" id="Shape"></path>
            <path d="M74.6085219,178 L52.3914781,178 C48.8628496,178 46,181.131771 46,185 C46,188.86823 48.8628496,192 52.3914781,192 L74.6085219,192 C78.1371504,192 81,188.86823 81,185 C81,181.131771 78.1371504,178 74.6085219,178 Z" id="Shape"></path>
            <path d="M123.391478,192 L145.608522,192 C149.137151,192 152,188.86823 152,185 C152,181.131771 149.137151,178 145.608522,178 L123.391478,178 C119.862849,178 117,181.131771 117,185 C117,188.86823 119.862849,192 123.391478,192 Z" id="Shape"></path>
            <path d="M195.392086,192 L217.607914,192 C221.136878,192 224,188.86823 224,185 C224,181.131771 221.136878,178 217.607914,178 L195.392086,178 C191.859793,178 189,181.131771 189,185 C189,188.86823 191.859793,192 195.392086,192 Z" id="Shape"></path>
            <path d="M266.391478,192 L288.608522,192 C292.137151,192 295,188.86823 295,185 C295,181.131771 292.137151,178 288.608522,178 L266.391478,178 C262.86285,178 260,181.131771 260,185 C260,188.86823 262.86285,192 266.391478,192 Z" id="Shape"></path>
            <path d="M360.607914,178 L338.392086,178 C334.859792,178 332,181.131771 332,185 C332,188.86823 334.859792,192 338.392086,192 L360.607914,192 C364.136878,192 367,188.86823 367,185 C367,181.131771 364.136878,178 360.607914,178 Z" id="Shape"></path>
            <path d="M123.735795,323.56582 L158.273764,358.226604 C163.269734,363.240339 169.910036,366 176.977166,366 C184.044294,366 190.688095,363.240339 195.680567,358.226604 L290.264642,263.306194 C300.578453,252.955709 300.578453,236.113349 290.264642,225.762864 C279.950832,215.412379 263.16815,215.412379 252.854341,225.762864 L176.977166,301.909852 L161.142598,286.022489 C150.832287,275.672005 134.049605,275.672005 123.732296,286.022489 C113.421985,296.372975 113.421985,313.215335 123.735795,323.56582 Z M133.234436,295.554907 C135.770906,293.009418 139.105051,291.734918 142.439197,291.734918 C145.773342,291.734918 149.107488,293.009418 151.643957,295.554907 L172.226096,316.210234 C174.85003,318.843499 179.100803,318.843499 181.724737,316.210234 L262.352981,235.298793 C267.432917,230.204303 275.689563,230.204303 280.762503,235.295281 C285.83894,240.38977 285.83894,248.679288 280.762503,253.773776 L186.181926,348.690675 C183.722426,351.158921 180.454753,352.517686 176.977166,352.517686 C173.499578,352.517686 170.231906,351.158921 167.772405,348.690675 L133.234436,314.029891 C128.157998,308.935402 128.157998,300.649396 133.234436,295.554907 Z" id="Shape"></path>
            <path d="M423.149269,281.580339 L423.149269,227.746375 C423.149269,224.0183 420.140851,221 416.42498,221 C412.712612,221 409.70069,224.0183 409.70069,227.746375 L409.70069,272.975197 C397.439369,266.597764 383.524994,262.989156 368.787593,262.989156 C319.595214,262.989156 279.575186,303.140629 279.575186,352.494578 C279.575186,365.421616 282.32444,377.712669 287.259087,388.823104 L105.724289,388.823104 C102.01192,388.823104 99,391.841405 99,395.569479 C99,399.294041 102.01192,402.315854 105.724289,402.315854 L294.708339,402.315854 C310.738064,426.233862 337.960929,442 368.787593,442 C417.979972,442 458,401.848528 458,352.494578 C458,323.653825 444.327278,297.957867 423.149269,281.580339 Z M368.787593,428.50725 C327.009444,428.50725 293.023765,394.409947 293.023765,352.494578 C293.023765,310.57921 327.012946,276.481906 368.787593,276.481906 C410.56224,276.481906 444.551421,310.57921 444.551421,352.494578 C444.551421,394.409947 410.56224,428.50725 368.787593,428.50725 Z" id="Shape"></path>
            <path d="M368.501737,286 C332.383567,286 303,315.386261 303,351.5 C303,387.617212 332.383567,417 368.501737,417 C404.619907,417 434,387.617212 434,351.5 C434,315.386261 404.616433,286 368.501737,286 Z M374.472228,403.308871 C374.913328,402.416274 375.170348,401.416009 375.170348,400.353227 L375.170348,392.229545 C375.170348,388.548014 372.183366,385.561111 368.501737,385.561111 C364.820108,385.561111 361.833126,388.548014 361.833126,392.229545 L361.833126,400.353227 C361.833126,401.416009 362.086672,402.416274 362.531246,403.308871 C338.531192,400.561615 319.43882,381.46975 316.691491,357.470332 C317.58064,357.914895 318.584405,358.168434 319.647215,358.168434 L327.767638,358.168434 C331.45274,358.168434 334.436249,355.185005 334.436249,351.5 C334.436249,347.814995 331.45274,344.831565 327.767638,344.831565 L319.647215,344.831565 C318.584405,344.831565 317.58064,345.088578 316.691491,345.529668 C319.43882,321.53025 338.531192,302.438385 362.531246,299.691129 C362.086672,300.583727 361.833126,301.583992 361.833126,302.646773 L361.833126,310.770455 C361.833126,314.455459 364.820108,317.438889 368.501737,317.438889 C372.183366,317.438889 375.170348,314.455459 375.170348,310.770455 L375.170348,302.646773 C375.170348,301.583992 374.913328,300.583727 374.472228,299.691129 C398.472281,302.438385 417.564653,321.53025 420.311982,345.529668 C419.41936,345.088578 418.419069,344.831565 417.356258,344.831565 L409.232363,344.831565 C405.550733,344.831565 402.563752,347.814995 402.563752,351.5 C402.563752,355.185005 405.550733,358.168434 409.232363,358.168434 L417.356258,358.168434 C418.419069,358.168434 419.41936,357.914895 420.311982,357.470332 C417.56118,381.46975 398.472281,400.561615 374.472228,403.308871 Z" id="Shape"></path>
            <path d="M384.102081,346.088757 L375.795837,346.088757 L375.795837,338.955622 C375.795837,335.115539 372.706145,332 368.897919,332 C365.086099,332 362,335.115539 362,338.955622 L362,353.044378 C362,356.888085 365.086099,360 368.897919,360 L384.102081,360 C387.910307,360 391,356.888085 391,353.044378 C391,349.200673 387.910307,346.088757 384.102081,346.088757 Z" id="Shape"></path>
        </g>
    </g>
</svg>