<svg xmlns="http://www.w3.org/2000/svg" width="84" height="60" viewBox="0 0 84 60">
  <g fill="none" fill-rule="evenodd" transform="translate(1 1.457)">
    <path stroke="#FFF" stroke-width="2.5" d="M78.6,57.2 L3.4,57.2 C1.7,57.2 0.4,55.8 0.4,54.2 L0.4,3.2 C0.4,1.6 1.7,0.2 3.4,0.2 L78.6,0.2 C80.2,0.2 81.6,1.6 81.6,3.2 L81.6,54.2 C81.6,55.8 80.3,57.2 78.6,57.2 Z"/>
    <path stroke="#FFF" stroke-linecap="round" stroke-width="2.5" d="M.4 39.7L81.6 39.7M.4 45C.4 45 46 45 68.9 45M75.2 45C79.2 45 81.6 45 81.6 45M.4 50.3C.4 50.3 29.7 50.3 53.1 50.3M59.2 50.3C71.9 50.3 81.6 50.3 81.6 50.3"/>
    <polyline stroke="#FFF" stroke-linecap="round" stroke-width="2.5" points="27.9 6.3 6.2 6.3 6.2 34.8 26.7 34.8"/>
    <polyline stroke="#FFF" stroke-linecap="round" stroke-width="2.5" points="54.4 6.3 76 6.3 76 34.8 55.5 34.8"/>
    <path fill="#FFF" d="M41,34.4 C33.5993844,34.4 27.6,28.4006156 27.6,21 C27.6,13.5993844 33.5993844,7.6 41,7.6 C48.4006156,7.6 54.4,13.5993844 54.4,21 C54.4,28.4006156 48.4006156,34.4 41,34.4 Z M38.2707906,19.2583836 L34.9527711,19.2583836 L35.7173582,15.6374145 L39.222918,15.6374145 C39.7134103,15.6374145 40.0908913,15.7095446 40.3553725,15.853807 C40.8458648,16.1279057 41.0117641,16.642434 40.8530754,17.3974074 C40.7040042,18.0994846 40.4046641,18.5851609 39.9550462,18.8544508 C39.5054283,19.1237407 38.9440153,19.2583836 38.2707906,19.2583836 Z M34.5488383,14.4039768 L32.2983555,25 L33.7337596,25 L34.6931,20.4557559 L37.9606279,20.4557559 C38.5472952,20.4557559 38.96565,20.520673 39.2157049,20.6505092 C39.6436835,20.8861378 39.8023698,21.3501751 39.6917686,22.0426348 L39.4032451,23.8098408 C39.3311139,24.2233931 39.2950488,24.5022963 39.2950488,24.6465588 C39.2950488,24.7908212 39.3094749,24.9086338 39.3383273,25 L41.0983203,25 L41.1488119,24.7619682 C40.9468445,24.6657932 40.8386493,24.4494028 40.824223,24.1127904 C40.8097968,23.9156318 40.8386489,23.6150895 40.9107801,23.2111547 L41.1632381,21.7901768 C41.2690305,21.174657 41.2473915,20.7298545 41.0983203,20.4557559 C40.9492491,20.1816572 40.684772,19.9604581 40.3048809,19.792152 C40.8290344,19.5469058 41.2654217,19.2223202 41.614056,18.8183854 C41.9626902,18.4144505 42.2043261,17.8951135 42.3389711,17.2603588 C42.5938347,16.0437455 42.2716535,15.2094403 41.3724176,14.757418 C40.9011603,14.5217893 40.2616064,14.4039768 39.4537367,14.4039768 L34.5488383,14.4039768 Z M48.8235354,21.0905074 C48.6071417,22.1003445 48.2440867,22.8589131 47.7343594,23.366236 C47.2246321,23.8735589 46.6668257,24.1272166 46.0609234,24.1272166 C45.1664963,24.1272166 44.637542,23.7280965 44.4740445,22.9298443 C44.3826783,22.5114833 44.3995087,22.004168 44.5245361,21.4078832 C44.6832248,20.667336 44.9020196,20.0566342 45.180927,19.5757594 C45.7050805,18.6765235 46.4167645,18.2269123 47.3160004,18.2269123 C48.2104275,18.2269123 48.7345732,18.6524801 48.8884531,19.5036285 C48.9750106,19.9460333 48.9533715,20.4749877 48.8235354,21.0905074 Z M44.1494557,17.3108504 L41.8629074,28.0799877 L43.1612629,28.0799877 L43.9979809,24.1344297 C44.204757,24.4854683 44.4091257,24.7331151 44.6110932,24.8773775 C44.9525143,25.1322412 45.4141472,25.2596711 45.9960057,25.2596711 C46.7365529,25.2596711 47.4338109,25.031259 48.0878006,24.5744279 C49.1216814,23.8531157 49.8165351,22.6509468 50.1723824,20.967885 C50.4368636,19.7224192 50.3358814,18.7642906 49.8694328,18.0934702 C49.4029843,17.4226499 48.732174,17.0872447 47.8569818,17.0872447 C47.2655058,17.0872447 46.7197211,17.231505 46.2196113,17.5200299 C45.8685727,17.7123798 45.5271567,17.98407 45.1953531,18.3351086 L45.4117457,17.3108504 L44.1494557,17.3108504 Z"/>
  </g>
</svg>
