<?xml version="1.0" encoding="UTF-8"?>
<svg width="512px" height="512px" viewBox="0 0 512 512" version="1.1" xmlns="http://www.w3.org/2000/svg" xmlns:xlink="http://www.w3.org/1999/xlink">
    <!-- Generator: Sketch 51.3 (57544) - http://www.bohemiancoding.com/sketch -->
    <title>Customer Service</title>
    <desc>Created with Sketch.</desc>
    <defs></defs>
    <g id="Customer-Service" stroke="none" stroke-width="1" fill="none" fill-rule="evenodd">
        <g id="support" transform="translate(50.000000, 27.000000)" fill="#4583F1" fill-rule="nonzero">
            <path d="M305,355 C300.032,355 296,359.032 296,364 C296,368.968 300.032,373 305,373 C309.968,373 314,368.968 314,364 C314,359.032 309.968,355 305,355 Z" id="Shape"></path>
            <path d="M326.574487,326.018197 L284.004139,311.817885 L268.721626,281.223562 C282.489591,267.197168 292.048887,248.638148 295.272339,229.280361 L297.178287,217.845703 L313.478261,217.845703 C328.294139,217.845703 340.347826,205.780816 340.347826,190.951172 L340.347826,134.472656 C340.347826,60.3244336 280.079391,0 206,0 C131.73073,0 71.6521739,60.1514121 71.6521739,134.472656 L71.6521739,190.951172 C71.6521739,202.637742 79.1407217,212.603062 89.5652174,216.30375 L89.5652174,226.810547 C89.5652174,241.640191 101.618904,253.705078 116.434783,253.705078 L124.3004,253.705078 C128.183052,262.147271 133.208557,269.966408 139.32407,276.990363 C140.592313,278.44984 141.915191,279.864492 143.270313,281.240596 L127.995861,311.817885 L85.4246174,326.019094 C35.9264,342.539508 0,394.696072 0,450.035156 C0,454.986439 4.00983478,459 8.95652174,459 L403.043478,459 C407.98927,459 412,454.986439 412,450.035156 C412,394.696072 376.074496,342.539508 326.574487,326.018197 Z M322.434783,190.951172 C322.434783,195.894387 318.416887,199.916016 313.478261,199.916016 L299.808817,199.916016 C302.085565,182.264238 303.6028,163.480201 304.212739,144.979453 C304.230652,144.457699 304.244983,143.950289 304.261104,143.4375 L322.434783,143.4375 L322.434783,190.951172 Z M98.5217391,199.916016 C93.583113,199.916016 89.5652174,195.894387 89.5652174,190.951172 L89.5652174,143.4375 L107.745165,143.4375 C107.774722,144.372533 107.80607,145.312049 107.841,146.25784 C107.841896,146.290113 107.843687,146.32149 107.844583,146.353764 C107.844583,146.356453 107.844583,146.359143 107.844583,146.361832 C108.471539,164.356066 109.96907,182.652416 112.19387,199.915119 L98.5217391,199.915119 L98.5217391,199.916016 Z M116.434783,235.775391 C111.496157,235.775391 107.478261,231.753762 107.478261,226.810547 L107.478261,217.845703 L114.820817,217.845703 L116.726765,229.283947 C117.0904,231.457922 117.53733,233.623828 118.054122,235.775391 L116.434783,235.775391 Z M107.493487,125.507812 L89.9055652,125.507812 C94.4420435,65.4245332 144.537661,17.9296875 206,17.9296875 C267.189165,17.9296875 317.505113,65.4182578 322.093539,125.507812 L304.507409,125.507812 C303.862539,75.9976699 263.582374,35.859375 214.016983,35.859375 L197.984809,35.859375 C148.420313,35.859375 108.137461,75.9976699 107.493487,125.507812 Z M197.983913,53.7890625 L214.016087,53.7890625 C254.149365,53.7890625 286.631983,86.6461113 286.608696,126.771855 C286.608696,129.593092 286.586304,132.049459 286.538835,134.284395 C286.538835,134.313082 286.537939,134.342666 286.537939,134.37225 L275.335122,132.770232 C244.900861,128.42049 216.164757,114.039088 194.420113,92.2742402 C192.73987,90.593332 190.462226,89.6484375 188.086957,89.6484375 C164.033322,89.6484375 141.007896,100.61782 125.787183,119.149945 C129.538174,82.645998 160.369209,53.7890625 197.983913,53.7890625 Z M136.622783,235.775391 C132.139148,220.846236 127.008852,176.918502 125.874957,148.768893 L137.929539,132.680584 C149.000696,117.910107 166.224983,108.732797 184.547339,107.679428 C208.655609,130.643771 239.844009,145.808701 272.802217,150.51883 L285.988009,152.405033 C285.106687,171.128109 283.30553,189.916629 280.725157,207.196365 C280.724261,207.201744 280.723365,207.20802 280.72247,207.214295 C279.902052,212.769809 279.255391,216.344988 277.603809,226.330928 C272.860435,254.807754 251.631687,280.559268 223.607626,287.572465 C212.074313,290.454662 199.923896,290.453766 188.396852,287.572465 C170.898496,283.194035 154.853783,271.075359 144.499148,253.705078 L162.757913,253.705078 C166.455165,264.13926 176.410339,271.634766 188.086957,271.634766 L206,271.634766 C220.845435,271.634766 232.869565,259.600359 232.869565,244.740234 C232.869565,229.91059 220.815878,217.845703 206,217.845703 L188.086957,217.845703 C176.1506,217.845703 166.342313,225.562641 162.742687,235.775391 L136.622783,235.775391 Z M187.333713,305.715516 C193.476991,307.010936 199.740287,307.673437 206,307.673437 C210.900113,307.673437 215.801122,307.262848 220.6466,306.46677 L204.820426,323.219373 L187.333713,305.715516 Z M192.507,336.252463 L164.098704,366.322342 C156.27787,351.338502 149.557791,335.744156 144.045948,319.779562 L154.714061,298.423512 L192.507,336.252463 Z M255.767809,295.386223 L267.952261,319.778666 C262.431461,335.770154 255.709591,351.369879 247.896817,366.335789 L217.491217,335.901937 L255.767809,295.386223 Z M179.130435,244.740234 C179.130435,239.790744 183.141165,235.775391 188.086957,235.775391 L206,235.775391 C210.938626,235.775391 214.956522,239.79702 214.956522,244.740234 C214.956522,249.690621 210.944896,253.705078 206,253.705078 L188.086957,253.705078 C183.14833,253.705078 179.130435,249.683449 179.130435,244.740234 Z M18.2713043,441.070313 C21.8207739,396.659373 51.3495304,356.292475 91.0896174,343.028092 L128.7912,330.452209 C135.69847,349.569738 144.25553,368.15117 154.284148,385.801154 C154.301165,385.831635 154.317287,385.862115 154.334304,385.891699 C154.334304,385.892596 154.3352,385.892596 154.3352,385.893492 C161.66253,398.793006 169.909696,411.398473 178.850991,423.365643 L189.869304,441.070313 L18.2713043,441.070313 Z M206,433.079051 L193.853165,413.559896 C193.717026,413.341154 193.57193,413.128688 193.417878,412.922496 C186.164887,403.238672 179.39913,393.111088 173.237043,382.745039 L205.178687,348.935027 L238.835504,382.623117 C232.632217,393.064471 225.843174,403.234189 218.583913,412.920703 C218.145043,413.506107 218.767522,412.583625 206,433.079051 Z M222.130696,441.070313 L233.148113,423.366539 C242.128817,411.353648 250.435096,398.646879 257.83587,385.595859 C257.880652,385.516969 257.922748,385.436285 257.96753,385.357395 C257.972904,385.347533 257.978278,385.338568 257.983652,385.328707 C267.885087,367.847262 276.352583,349.427197 283.2088,330.452209 L320.909487,343.028092 C360.65047,356.292475 390.179226,396.659373 393.728696,441.070313 L222.130696,441.070313 Z" id="Shape"></path>
            <path d="M367.048109,404.92556 C361.02107,392.839537 352.192896,382.102429 341.517741,373.875224 C337.569458,370.831357 331.907666,371.571317 328.87115,375.526809 C325.833731,379.4823 326.572343,385.154427 330.519725,388.197391 C339.04578,394.768494 346.096415,403.345351 350.911372,413.000978 C353.141638,417.472364 358.561735,419.272121 363.009641,417.045915 C367.464762,414.816095 369.272964,409.389717 367.048109,404.92556 Z" id="Shape"></path>
        </g>
    </g>
</svg>