<svg width="61" height="55" viewBox="0 0 61 55" fill="none" xmlns="http://www.w3.org/2000/svg">
<path d="M44.7969 14.3477C45.4545 14.3477 45.9883 13.812 45.9883 13.1521C45.9883 12.4922 45.4545 11.9564 44.7969 11.9564C44.1393 11.9564 43.6055 12.4922 43.6055 13.1521C43.6055 13.812 44.1393 14.3477 44.7969 14.3477Z" fill="#4583F1"/>
<path d="M59.8086 0H1.19141C0.53334 0 0 0.535238 0 1.19564V4.08574C0 7.10708 2.44936 9.56516 5.45999 9.56516H6.09944L24.543 32.7018V53.804C24.543 54.5438 25.2057 55.1052 25.9308 54.9833L26.7499 54.846C28.8786 54.4896 30.8928 53.5836 32.5757 52.2259C35.0576 50.2208 36.457 47.3354 36.457 46.6301V32.7018L54.9006 9.56516H55.043C58.3277 9.56516 61 6.88336 61 3.58693V1.19564C61 0.535238 60.4667 0 59.8086 0ZM31.0817 50.3628C29.868 51.3422 28.4416 52.0316 26.9258 52.3753V33.4781H34.0742V46.3934C33.418 47.9398 32.3867 49.3087 31.0817 50.3628ZM34.6927 31.0868H26.3068L9.15056 9.56516H51.849L34.6927 31.0868ZM58.6172 3.58693C58.6172 5.56489 57.0139 7.17387 55.043 7.17387H5.45999C3.76317 7.17387 2.38281 5.7886 2.38281 4.08574V2.39129H58.6172V3.58693Z" fill="#4583F1"/>
<path d="M32.2299 28.4335C32.7427 28.8449 33.4925 28.7637 33.9048 28.2466L42.5234 17.4368C42.9344 16.9212 42.8515 16.1688 42.3377 15.7564C41.8239 15.344 41.0742 15.4271 40.6628 15.9427L32.0442 26.7526C31.6332 27.2682 31.7165 28.0206 32.2299 28.4335Z" fill="#4583F1"/>
</svg>
