<svg width="79" height="79" viewBox="0 0 79 79" fill="none" xmlns="http://www.w3.org/2000/svg">
<path fill-rule="evenodd" clip-rule="evenodd" d="M79 39.5C79 61.3152 61.3152 79 39.5 79C17.6848 79 0 61.3152 0 39.5C0 17.6848 17.6848 0 39.5 0C61.3152 0 79 17.6848 79 39.5ZM76.847 39.5828C76.847 60.1632 60.1632 76.847 39.5828 76.847C19.0024 76.847 2.31866 60.1632 2.31866 39.5828C2.31866 19.0024 19.0024 2.31866 39.5828 2.31866C60.1632 2.31866 76.847 19.0024 76.847 39.5828Z" fill="#4583F1"/>
<path fill-rule="evenodd" clip-rule="evenodd" d="M48.8575 39.5C48.8575 44.668 44.668 48.8574 39.5 48.8574C34.332 48.8574 30.1426 44.668 30.1426 39.5C30.1426 34.332 34.332 30.1425 39.5 30.1425C44.668 30.1425 48.8575 34.332 48.8575 39.5ZM47.8638 39.5C47.8638 44.1192 44.1192 47.8637 39.5 47.8637C34.8809 47.8637 31.1363 44.1192 31.1363 39.5C31.1363 34.8808 34.8809 31.1363 39.5 31.1363C44.1192 31.1363 47.8638 34.8808 47.8638 39.5Z" fill="#4583F1"/>
<path fill-rule="evenodd" clip-rule="evenodd" d="M26.168 39.5C26.168 44.668 21.9785 48.8574 16.8106 48.8574C11.6426 48.8574 7.45312 44.668 7.45312 39.5C7.45312 34.332 11.6426 30.1425 16.8106 30.1425C21.9785 30.1425 26.168 34.332 26.168 39.5ZM25.1743 39.5C25.1743 44.1192 21.4297 47.8637 16.8106 47.8637C12.1914 47.8637 8.44684 44.1192 8.44684 39.5C8.44684 34.8808 12.1914 31.1363 16.8106 31.1363C21.4297 31.1363 25.1743 34.8808 25.1743 39.5Z" fill="#4583F1"/>
<path fill-rule="evenodd" clip-rule="evenodd" d="M71.5469 39.5C71.5469 44.668 67.3574 48.8574 62.1895 48.8574C57.0215 48.8574 52.832 44.668 52.832 39.5C52.832 34.332 57.0215 30.1425 62.1895 30.1425C67.3574 30.1425 71.5469 34.332 71.5469 39.5ZM70.5532 39.5C70.5532 44.1192 66.8086 47.8637 62.1895 47.8637C57.5703 47.8637 53.8257 44.1192 53.8257 39.5C53.8257 34.8808 57.5703 31.1363 62.1895 31.1363C66.8086 31.1363 70.5532 34.8808 70.5532 39.5Z" fill="#4583F1"/>
</svg>
