<svg width="238" height="238" viewBox="0 0 238 238" fill="none" xmlns="http://www.w3.org/2000/svg">
<g filter="url(#filter0_d)">
<rect x="12" y="8" width="214" height="214" rx="4" fill="url(#paint0_linear)"/>
<g opacity="0.5">
<path d="M147.835 151.865C146.388 151.865 145.214 153.033 145.214 154.473C145.214 155.912 146.388 157.081 147.835 157.081C149.282 157.081 150.456 155.912 150.456 154.473C150.456 153.033 149.282 151.865 147.835 151.865Z" fill="white"/>
<path fill-rule="evenodd" clip-rule="evenodd" d="M141.72 139.352L154.119 143.467C168.536 148.254 179 163.367 179 179.402C179 180.837 177.832 182 176.391 182H61.6087C60.1679 182 59 180.837 59 179.402C59 163.367 69.464 148.254 83.881 143.467L96.2803 139.352L100.729 130.492C100.335 130.094 99.9492 129.684 99.5798 129.261C97.7986 127.226 96.3349 124.96 95.204 122.514H92.913C88.5977 122.514 85.087 119.018 85.087 114.721V111.676C82.0507 110.604 79.8696 107.716 79.8696 104.33V87.9648C79.8696 66.4295 97.3682 49 119 49C140.577 49 158.13 66.4796 158.13 87.9648V104.33C158.13 108.627 154.62 112.123 150.304 112.123H145.557L145.002 115.436C144.063 121.045 141.279 126.423 137.268 130.487L141.72 139.352ZM150.304 106.928C151.743 106.928 152.913 105.762 152.913 104.33V90.5625H147.62C147.618 90.6086 147.617 90.6545 147.615 90.7004L147.615 90.716C147.612 90.813 147.609 90.9103 147.606 91.0093C147.428 96.3701 146.986 101.813 146.323 106.928H150.304ZM87.6957 106.928C86.2572 106.928 85.087 105.762 85.087 104.33V90.5625H90.3821C90.3907 90.8334 90.3998 91.1057 90.41 91.3797L90.4102 91.3854L90.4105 91.3936C90.4107 91.3982 90.4109 91.4029 90.411 91.4075V91.4099C90.5937 96.6239 91.0298 101.925 91.6778 106.927L87.6957 106.928ZM90.3043 114.721C90.3043 116.153 91.4746 117.318 92.913 117.318H93.3847C93.2342 116.695 93.104 116.067 92.9981 115.437L92.443 112.123H90.3043V114.721ZM90.3088 85.3672H85.1861C86.5074 67.9574 101.098 54.1953 119 54.1953C136.822 54.1953 151.477 67.9556 152.814 85.3672H147.691C147.504 71.0211 135.772 59.3906 121.335 59.3906H116.665C102.229 59.3906 90.4963 71.0211 90.3088 85.3672ZM142.478 85.7335C142.485 74.1066 133.024 64.5859 121.335 64.5859H116.665C105.709 64.5859 96.7296 72.9475 95.637 83.5249C100.07 78.1551 106.777 74.9766 113.783 74.9766C114.474 74.9766 115.138 75.2504 115.627 75.7374C121.961 82.044 130.33 86.2112 139.195 87.4715L142.458 87.9358C142.458 87.9272 142.458 87.9186 142.458 87.9103C142.472 87.2627 142.478 86.5509 142.478 85.7335ZM98.793 117.318C97.4871 112.992 95.9929 100.264 95.6626 92.1073L99.1737 87.4456C102.398 83.1657 107.415 80.5065 112.752 80.2012C119.773 86.8554 128.857 91.2496 138.457 92.6144L142.297 93.1609C142.041 98.5861 141.516 104.03 140.765 109.037L140.764 109.042C140.597 110.164 140.455 111.007 140.222 112.394C140.12 112.997 140.001 113.704 139.855 114.582C138.474 122.833 132.291 130.295 124.128 132.327C120.769 133.162 117.23 133.162 113.873 132.327C108.776 131.058 104.103 127.547 101.087 122.514H106.405C107.482 125.537 110.382 127.709 113.783 127.709H119C123.324 127.709 126.826 124.222 126.826 119.916C126.826 115.619 123.315 112.123 119 112.123H113.783C110.306 112.123 107.449 114.359 106.401 117.318H98.793ZM119 138.152C117.177 138.152 115.353 137.96 113.563 137.584L118.656 142.656L123.266 137.802C121.855 138.033 120.427 138.152 119 138.152ZM115.07 146.433L106.796 155.146C104.518 150.804 102.561 146.285 100.955 141.659L104.062 135.471L115.07 146.433ZM137.044 141.659L133.495 134.591L122.347 146.331L131.203 155.15C133.479 150.813 135.436 146.293 137.044 141.659ZM111.174 119.916C111.174 118.482 112.342 117.318 113.783 117.318H119C120.438 117.318 121.609 118.484 121.609 119.916C121.609 121.35 120.44 122.514 119 122.514H113.783C112.344 122.514 111.174 121.348 111.174 119.916ZM85.531 148.396C73.9562 152.239 65.3556 163.936 64.3217 176.805H114.302L111.093 171.675C108.488 168.207 106.086 164.554 103.952 160.817C103.952 160.817 103.952 160.817 103.952 160.817L103.952 160.816C103.952 160.816 103.952 160.816 103.952 160.816C103.947 160.808 103.942 160.799 103.937 160.79C101.016 155.676 98.5238 150.291 96.512 144.752L85.531 148.396ZM119 174.489L115.462 168.833C115.422 168.77 115.38 168.708 115.335 168.649C113.223 165.843 111.252 162.908 109.457 159.904L118.761 150.108L128.564 159.869C126.757 162.895 124.78 165.841 122.665 168.648C122.657 168.66 122.649 168.669 122.642 168.679C122.586 168.754 122.536 168.834 121.844 169.942C121.333 170.76 120.472 172.138 119 174.489ZM126.907 171.675L123.698 176.805H173.678C172.644 163.936 164.044 152.239 152.469 148.396L141.488 144.752C139.491 150.25 137.025 155.588 134.141 160.653C134.139 160.656 134.138 160.658 134.136 160.661C134.123 160.684 134.111 160.708 134.098 160.73C131.942 164.512 129.523 168.194 126.907 171.675Z" fill="white"/>
<path d="M165.907 166.331C164.152 162.829 161.58 159.718 158.471 157.334C157.321 156.452 155.672 156.667 154.788 157.813C153.903 158.959 154.118 160.602 155.268 161.484C157.751 163.388 159.805 165.873 161.207 168.671C161.857 169.967 163.435 170.488 164.731 169.843C166.029 169.197 166.555 167.625 165.907 166.331Z" fill="white"/>
</g>
</g>
<defs>
<filter id="filter0_d" x="0" y="0" width="238" height="238" filterUnits="userSpaceOnUse" color-interpolation-filters="sRGB">
<feFlood flood-opacity="0" result="BackgroundImageFix"/>
<feColorMatrix in="SourceAlpha" type="matrix" values="0 0 0 0 0 0 0 0 0 0 0 0 0 0 0 0 0 0 127 0"/>
<feOffset dy="4"/>
<feGaussianBlur stdDeviation="6"/>
<feColorMatrix type="matrix" values="0 0 0 0 0.270588 0 0 0 0 0.513726 0 0 0 0 0.945098 0 0 0 0.2 0"/>
<feBlend mode="normal" in2="BackgroundImageFix" result="effect1_dropShadow"/>
<feBlend mode="normal" in="SourceGraphic" in2="effect1_dropShadow" result="shape"/>
</filter>
<linearGradient id="paint0_linear" x1="12" y1="8" x2="249.606" y2="38.5793" gradientUnits="userSpaceOnUse">
<stop stop-color="#9878F3"/>
<stop offset="1" stop-color="#6C41E7"/>
</linearGradient>
</defs>
</svg>
