<svg width="238" height="238" viewBox="0 0 238 238" fill="none" xmlns="http://www.w3.org/2000/svg">
<g filter="url(#filter0_d)">
<rect x="12" y="8" width="214" height="214" rx="4" fill="url(#paint0_linear)"/>
<g opacity="0.5">
<path d="M73.7034 170.992C73.2667 170.555 72.661 170.304 72.0435 170.304C71.4237 170.304 70.8203 170.555 70.3836 170.992C69.9445 171.429 69.6957 172.035 69.6957 172.652C69.6957 173.27 69.9445 173.875 70.3836 174.312C70.8203 174.749 71.4239 175 72.0435 175C72.661 175 73.2667 174.749 73.7034 174.312C74.1399 173.875 74.3913 173.27 74.3913 172.652C74.3913 172.035 74.1401 171.429 73.7034 170.992Z" fill="white"/>
<path d="M146.486 154.297C146.049 153.86 145.444 153.609 144.826 153.609C144.209 153.609 143.603 153.86 143.166 154.297C142.729 154.734 142.478 155.339 142.478 155.957C142.478 156.576 142.729 157.18 143.166 157.616C143.603 158.053 144.209 158.304 144.826 158.304C145.444 158.304 146.049 158.053 146.486 157.616C146.922 157.18 147.174 156.576 147.174 155.957C147.174 155.339 146.923 154.733 146.486 154.297Z" fill="white"/>
<path fill-rule="evenodd" clip-rule="evenodd" d="M174.312 85.7826C174.312 88.4936 173.214 90.9525 171.441 92.7369C175.942 95.2131 179 100.007 179 105.504V131.839C179 139.197 173.025 145.183 165.68 145.183H147.125V146.591C147.125 147.888 146.075 148.939 144.781 148.939C143.487 148.939 142.438 147.888 142.438 146.591V142.835C142.438 141.538 143.487 140.487 144.781 140.487H165.68C170.44 140.487 174.312 136.608 174.312 131.839V131.33H143.668C140.017 131.33 137.047 134.306 137.047 137.963V167.604C137.047 169.093 138.256 170.304 139.742 170.304C141.228 170.304 142.438 169.093 142.438 167.604V164.904C142.438 163.608 143.487 162.557 144.781 162.557C146.075 162.557 147.125 163.608 147.125 164.904V167.604C147.125 168.557 146.942 169.467 146.613 170.304H165.953C167.247 170.304 168.297 171.356 168.297 172.652C168.297 173.949 167.247 175 165.953 175H82.1251C80.8309 175 79.7813 173.949 79.7813 172.652C79.7813 171.356 80.8309 170.304 82.1251 170.304H91.3866C91.0578 169.467 90.875 168.557 90.875 167.604V145.183H72.3202C64.9754 145.183 59 139.197 59 131.839V105.504C59 100.007 62.0584 95.2131 66.5593 92.7369C64.7858 90.9525 63.6875 88.4936 63.6875 85.7826V83.9043C63.6875 78.467 68.1034 74.0435 73.5312 74.0435C78.9591 74.0435 83.375 78.467 83.375 83.9043V85.7826C83.375 88.4941 82.2765 90.953 80.5025 92.7376C84.3493 94.8537 87.143 98.6621 87.8736 103.157H98.6094C102.486 103.157 105.641 106.316 105.641 110.2C105.641 111.023 105.498 111.813 105.237 112.548H132.763C132.502 111.813 132.359 111.023 132.359 110.2C132.359 106.316 135.514 103.157 139.391 103.157H150.126C150.857 98.6621 153.651 94.8539 157.498 92.7376C155.724 90.953 154.625 88.4941 154.625 85.7826V83.9043C154.625 78.467 159.041 74.0435 164.469 74.0435C169.897 74.0435 174.312 78.467 174.312 83.9043V85.7826ZM164.469 78.7391C161.626 78.7391 159.312 81.0562 159.312 83.9043V85.7826C159.312 88.6308 161.626 90.9478 164.469 90.9478C167.312 90.9478 169.625 88.6308 169.625 85.7826V83.9043C169.625 81.0562 167.312 78.7391 164.469 78.7391ZM68.375 83.9043C68.375 81.0562 70.688 78.7391 73.5312 78.7391C76.3745 78.7391 78.6875 81.0562 78.6875 83.9043V85.7826C78.6875 88.6308 76.3745 90.9478 73.5312 90.9478C70.688 90.9478 68.375 88.6308 68.375 85.7826V83.9043ZM73.5312 95.6435C68.1034 95.6435 63.6875 100.067 63.6875 105.504V126.635H83.375V117.948C83.375 117.676 83.4212 117.415 83.506 117.172C78.6277 116.692 74.2805 113.818 71.9342 109.43C71.323 108.287 71.7523 106.864 72.8933 106.252C74.0342 105.64 75.455 106.07 76.066 107.213C77.8259 110.504 81.234 112.548 84.9605 112.548H98.6094C99.9017 112.548 100.953 111.495 100.953 110.2C100.953 108.905 99.9017 107.852 98.6094 107.852H85.7188C84.4245 107.852 83.375 106.801 83.375 105.504C83.375 100.067 78.9591 95.6435 73.5312 95.6435ZM92.6052 126.635H88.0625V117.948C88.0625 117.702 88.025 117.466 87.9552 117.243H92.6052C91.8048 118.626 91.3438 120.229 91.3438 121.939C91.3438 123.649 91.8045 125.252 92.6052 126.635ZM98.2578 170.304C99.744 170.304 100.953 169.093 100.953 167.604V137.963C100.953 134.306 97.9829 131.33 94.332 131.33H63.6875V131.839C63.6875 136.608 67.5601 140.487 72.3202 140.487H93.2188C94.513 140.487 95.5625 141.538 95.5625 142.835V167.604C95.5625 169.093 96.7716 170.304 98.2578 170.304ZM111.969 170.304H105.129C105.458 169.467 105.641 168.557 105.641 167.604V137.963C105.641 135.487 104.842 133.196 103.491 131.33H111.969V170.304ZM116.656 170.304H121.344V131.33H116.656V170.304ZM132.871 170.304H126.031V131.33H134.509C133.159 133.196 132.359 135.487 132.359 137.963V167.604C132.359 168.557 132.542 169.467 132.871 170.304ZM100.719 126.635H137.281C139.866 126.635 141.969 124.528 141.969 121.939C141.969 119.35 139.866 117.243 137.281 117.243H100.719C98.1341 117.243 96.0312 119.35 96.0312 121.939C96.0312 124.528 98.1341 126.635 100.719 126.635ZM149.938 117.948V126.635H145.395C146.195 125.252 146.656 123.649 146.656 121.939C146.656 120.229 146.195 118.626 145.395 117.243H150.045C149.975 117.466 149.938 117.702 149.938 117.948ZM154.625 117.948V126.635H174.312V105.504C174.312 100.067 169.897 95.6435 164.469 95.6435C159.041 95.6435 154.625 100.067 154.625 105.504C154.625 106.801 153.575 107.852 152.281 107.852H139.391C138.098 107.852 137.047 108.905 137.047 110.2C137.047 111.495 138.098 112.548 139.391 112.548H153.039C156.766 112.548 160.174 110.504 161.934 107.213C162.545 106.07 163.965 105.64 165.107 106.252C166.248 106.864 166.677 108.287 166.066 109.43C163.719 113.818 159.372 116.692 154.494 117.172C154.579 117.415 154.625 117.676 154.625 117.948Z" fill="white"/>
<path fill-rule="evenodd" clip-rule="evenodd" d="M102.02 55H135.719C139.59 55 142.739 58.1615 142.739 62.0476V85.0697C142.739 88.9557 139.59 92.1172 135.719 92.1172H127.562L120.524 99.1815C120.067 99.64 119.469 99.8696 118.87 99.8696C118.27 99.8696 117.672 99.64 117.215 99.1815L110.178 92.1172H102.02C98.1494 92.1172 95 88.9557 95 85.0697V62.0476C95 58.1615 98.1494 55 102.02 55ZM135.719 87.4188C137.009 87.4188 138.059 86.365 138.059 85.0697V62.0476C138.059 60.7522 137.009 59.6984 135.719 59.6984H102.02C100.73 59.6984 99.6803 60.7522 99.6803 62.0476V85.0697C99.6803 86.365 100.73 87.4188 102.02 87.4188H111.147C111.768 87.4188 112.363 87.6665 112.802 88.1067L118.87 94.1979L124.937 88.1069C125.376 87.6665 125.971 87.4188 126.592 87.4188H135.719Z" fill="white"/>
<path d="M109.703 70.8183C109.267 70.3793 108.661 70.1304 108.043 70.1304C107.426 70.1304 106.82 70.3793 106.384 70.8183C105.947 71.255 105.696 71.8608 105.696 72.4783C105.696 73.0957 105.947 73.7015 106.384 74.1382C106.82 74.5749 107.426 74.8261 108.043 74.8261C108.661 74.8261 109.267 74.5749 109.703 74.1382C110.14 73.7015 110.391 73.0957 110.391 72.4783C110.391 71.8608 110.14 71.255 109.703 70.8183Z" fill="white"/>
<path d="M120.399 70.8183C119.962 70.3819 119.357 70.1304 118.739 70.1304C118.122 70.1304 117.516 70.3817 117.079 70.8183C116.643 71.255 116.391 71.8608 116.391 72.4783C116.391 73.0957 116.642 73.7015 117.079 74.1382C117.516 74.5749 118.122 74.8261 118.739 74.8261C119.357 74.8261 119.962 74.5749 120.399 74.1382C120.836 73.7015 121.087 73.0957 121.087 72.4783C121.087 71.8608 120.836 71.255 120.399 70.8183Z" fill="white"/>
<path d="M131.616 70.8183C131.18 70.3793 130.574 70.1304 129.957 70.1304C129.339 70.1304 128.733 70.3793 128.297 70.8183C127.86 71.255 127.609 71.8608 127.609 72.4783C127.609 73.0957 127.86 73.7015 128.297 74.1382C128.733 74.5749 129.339 74.8261 129.957 74.8261C130.574 74.8261 131.18 74.5749 131.616 74.1382C132.053 73.7015 132.304 73.0957 132.304 72.4783C132.304 71.8608 132.053 71.255 131.616 70.8183Z" fill="white"/>
</g>
</g>
<rect x="12" y="8" width="214" height="214" rx="4" fill="#3C3C3C" fill-opacity="0.8"/>
<g clip-path="url(#clip0)">
<path d="M150.169 106.557H148.357V98.0761C148.357 82.3894 135.909 69.2855 120.35 69.0057C119.925 68.9981 119.075 68.9981 118.65 69.0057C103.091 69.2855 90.6427 82.3894 90.6427 98.0761V106.557H88.8304C86.0377 106.557 83.7598 109.439 83.7598 112.998V155.536C83.7598 159.091 86.0377 162 88.8306 162H150.169C152.962 162 155.24 159.091 155.24 155.536V112.998C155.24 109.439 152.962 106.557 150.169 106.557ZM125.247 134.224V147.077C125.247 148.549 124.014 149.795 122.541 149.795H116.459C114.986 149.795 113.754 148.549 113.754 147.077V134.224C112.325 132.818 111.493 130.873 111.493 128.722C111.493 124.646 114.644 121.143 118.65 120.981C119.075 120.964 119.925 120.964 120.35 120.981C124.356 121.143 127.507 124.646 127.507 128.722C127.507 130.873 126.675 132.818 125.247 134.224ZM136.413 106.557H120.35H118.65H102.587V98.0761C102.587 88.7318 110.181 81.0055 119.5 81.0055C128.819 81.0055 136.414 88.7318 136.414 98.0761V106.557H136.413Z" fill="white" fill-opacity="0.66"/>
</g>
<defs>
<filter id="filter0_d" x="0" y="0" width="238" height="238" filterUnits="userSpaceOnUse" color-interpolation-filters="sRGB">
<feFlood flood-opacity="0" result="BackgroundImageFix"/>
<feColorMatrix in="SourceAlpha" type="matrix" values="0 0 0 0 0 0 0 0 0 0 0 0 0 0 0 0 0 0 127 0"/>
<feOffset dy="4"/>
<feGaussianBlur stdDeviation="6"/>
<feColorMatrix type="matrix" values="0 0 0 0 0.270588 0 0 0 0 0.513726 0 0 0 0 0.945098 0 0 0 0.2 0"/>
<feBlend mode="normal" in2="BackgroundImageFix" result="effect1_dropShadow"/>
<feBlend mode="normal" in="SourceGraphic" in2="effect1_dropShadow" result="shape"/>
</filter>
<linearGradient id="paint0_linear" x1="12" y1="8" x2="249.606" y2="38.5793" gradientUnits="userSpaceOnUse">
<stop stop-color="#27D5B5"/>
<stop offset="1" stop-color="#21B7CC"/>
</linearGradient>
<clipPath id="clip0">
<rect width="93" height="93" fill="white" transform="translate(73 69)"/>
</clipPath>
</defs>
</svg>
