<svg width="238" height="238" viewBox="0 0 238 238" fill="none" xmlns="http://www.w3.org/2000/svg">
<g filter="url(#filter0_d)">
<rect x="12" y="8" width="214" height="214" rx="4" fill="url(#paint0_linear)"/>
<g opacity="0.5">
<path fill-rule="evenodd" clip-rule="evenodd" d="M62.5303 140.798C62.5303 141.77 61.7397 142.557 60.7652 142.557C59.7906 142.557 59 141.77 59 140.798V74.1448C59 68.2482 63.8147 63.4508 69.7326 63.4508H72.4539V61.2725C72.4539 58.9164 74.3772 57 76.7418 57H80.0202C82.3848 57 84.3081 58.9164 84.3081 61.2725V63.4508H96.0152V61.2725C96.0152 58.9164 97.9385 57 100.303 57H103.582C105.946 57 107.869 58.9164 107.869 61.2725V63.4508H119.577V61.2725C119.577 58.9164 121.501 57 123.864 57H127.144C129.508 57 131.432 58.9164 131.432 61.2725V63.4508H143.139V61.2725C143.139 58.9164 145.062 57 147.426 57H150.705C153.07 57 154.993 58.9164 154.993 61.2725V63.4508H159.622C165.539 63.4508 170.354 68.2482 170.354 74.1448V108.904C170.354 109.876 169.564 110.663 168.589 110.663C167.614 110.663 166.823 109.876 166.823 108.904V89.5712H62.5303V140.798ZM147.427 60.5176C147.009 60.5176 146.669 60.8566 146.669 61.2725V69.8174C146.669 70.2342 147.009 70.5722 147.427 70.5722H150.706C151.123 70.5722 151.463 70.2333 151.463 69.8174V61.2725C151.463 60.8566 151.123 60.5176 150.706 60.5176H147.427ZM123.108 61.2725C123.108 60.8566 123.447 60.5176 123.864 60.5176H127.144C127.561 60.5176 127.901 60.8566 127.901 61.2725V69.8174C127.901 70.2333 127.561 70.5722 127.144 70.5722H123.864C123.447 70.5722 123.108 70.2342 123.108 69.8174V61.2725ZM100.303 60.5176C99.8857 60.5176 99.5456 60.8566 99.5456 61.2725V69.8174C99.5456 70.2342 99.8857 70.5722 100.303 70.5722H103.582C104 70.5722 104.34 70.2333 104.34 69.8174V61.2725C104.34 60.8566 104 60.5176 103.582 60.5176H100.303ZM75.9842 61.2725C75.9842 60.8566 76.3244 60.5176 76.7418 60.5176H80.0211C80.4385 60.5176 80.7778 60.8566 80.7778 61.2725V69.8174C80.7778 70.2333 80.4385 70.5722 80.0211 70.5722H76.7418C76.3244 70.5722 75.9842 70.2342 75.9842 69.8174V61.2725ZM72.4539 66.9685H69.7326C65.761 66.9685 62.5303 70.1875 62.5303 74.1448V86.0535H166.824V74.1448C166.824 70.1875 163.594 66.9685 159.622 66.9685H154.993V69.8174C154.993 72.1735 153.07 74.0899 150.706 74.0899H147.427C145.062 74.0899 143.139 72.1735 143.139 69.8174V66.9685H131.432V69.8174C131.432 72.1735 129.508 74.0899 127.145 74.0899H123.865C121.501 74.0899 119.577 72.1735 119.577 69.8174V66.9685H107.87V69.8174C107.87 72.1735 105.947 74.0899 103.582 74.0899H100.303C97.9395 74.0899 96.0162 72.1735 96.0162 69.8174V66.9685H84.3081V69.8174C84.3081 72.1735 82.3848 74.0899 80.0211 74.0899H76.7418C74.3772 74.0899 72.4539 72.1735 72.4539 69.8174V66.9685Z" fill="white"/>
<path d="M78.741 158.758H63.5363C62.9578 158.758 62.4874 158.288 62.4874 157.71V148.759C62.4874 147.797 61.7064 147.018 60.7437 147.018C59.781 147.018 59 147.797 59 148.759V157.71C59 160.208 61.0352 162.24 63.5363 162.24H78.741C79.7037 162.24 80.4847 161.46 80.4847 160.499C80.4847 159.537 79.7037 158.758 78.741 158.758Z" fill="white"/>
<path d="M78.5481 94.7919H72.727C71.8025 94.7919 71.0524 95.6147 71.0524 96.629C71.0524 97.6442 71.8025 98.4661 72.727 98.4661H78.5481C79.4726 98.4661 80.2227 97.6442 80.2227 96.629C80.2227 95.6147 79.4726 94.7919 78.5481 94.7919Z" fill="white"/>
<path d="M91.3296 98.4661H97.1507C98.0752 98.4661 98.8253 97.6442 98.8253 96.629C98.8253 95.6147 98.0752 94.7919 97.1507 94.7919H91.3296C90.4051 94.7919 89.655 95.6147 89.655 96.629C89.655 97.6442 90.4051 98.4661 91.3296 98.4661Z" fill="white"/>
<path d="M110.194 98.4661H116.015C116.94 98.4661 117.69 97.6442 117.69 96.629C117.69 95.6147 116.94 94.7919 116.015 94.7919H110.194C109.269 94.7919 108.52 95.6147 108.52 96.629C108.52 97.6442 109.269 98.4661 110.194 98.4661Z" fill="white"/>
<path d="M128.797 98.4661H134.618C135.542 98.4661 136.293 97.6442 136.293 96.629C136.293 95.6147 135.542 94.7919 134.618 94.7919H128.797C127.872 94.7919 127.122 95.6147 127.122 96.629C127.122 97.6442 127.872 98.4661 128.797 98.4661Z" fill="white"/>
<path d="M153.482 94.7919H147.662C146.736 94.7919 145.987 95.6147 145.987 96.629C145.987 97.6442 146.736 98.4661 147.662 98.4661H153.482C154.407 98.4661 155.157 97.6442 155.157 96.629C155.157 95.6147 154.407 94.7919 153.482 94.7919Z" fill="white"/>
<path d="M78.5481 103.715H72.727C71.8025 103.715 71.0524 104.537 71.0524 105.552C71.0524 106.567 71.8025 107.389 72.727 107.389H78.5481C79.4726 107.389 80.2227 106.567 80.2227 105.552C80.2227 104.537 79.4726 103.715 78.5481 103.715Z" fill="white"/>
<path d="M91.3296 107.389H97.1507C98.0752 107.389 98.8253 106.567 98.8253 105.552C98.8253 104.537 98.0752 103.715 97.1507 103.715H91.3296C90.4051 103.715 89.655 104.537 89.655 105.552C89.655 106.567 90.4051 107.389 91.3296 107.389Z" fill="white"/>
<path d="M110.194 107.389H116.015C116.94 107.389 117.69 106.567 117.69 105.552C117.69 104.537 116.94 103.715 116.015 103.715H110.194C109.269 103.715 108.52 104.537 108.52 105.552C108.52 106.567 109.269 107.389 110.194 107.389Z" fill="white"/>
<path d="M128.797 107.389H134.618C135.542 107.389 136.293 106.567 136.293 105.552C136.293 104.537 135.542 103.715 134.618 103.715H128.797C127.872 103.715 127.122 104.537 127.122 105.552C127.122 106.567 127.872 107.389 128.797 107.389Z" fill="white"/>
<path d="M153.482 103.715H147.662C146.736 103.715 145.987 104.537 145.987 105.552C145.987 106.567 146.736 107.389 147.662 107.389H153.482C154.407 107.389 155.157 106.567 155.157 105.552C155.157 104.537 154.407 103.715 153.482 103.715Z" fill="white"/>
<path fill-rule="evenodd" clip-rule="evenodd" d="M100.469 151.014L91.4199 141.918C88.7176 139.201 88.7176 134.781 91.4189 132.065C94.1222 129.348 98.5194 129.348 101.221 132.065L105.37 136.234L125.25 116.25C127.952 113.534 132.35 113.534 135.052 116.25C137.754 118.966 137.754 123.387 135.052 126.103L110.27 151.014C108.962 152.33 107.221 153.054 105.37 153.054C103.518 153.054 101.778 152.33 100.469 151.014ZM96.3203 133.564C95.4467 133.564 94.5732 133.898 93.9086 134.566C92.5785 135.903 92.5785 138.078 93.9086 139.415L102.958 148.512C103.602 149.159 104.458 149.516 105.37 149.516C106.281 149.516 107.137 149.159 107.781 148.512L132.562 123.601C133.892 122.264 133.892 120.089 132.562 118.752C131.233 117.416 129.07 117.416 127.739 118.753L106.613 139.987C105.926 140.678 104.812 140.678 104.125 139.987L98.732 134.566C98.0675 133.898 97.1939 133.564 96.3203 133.564Z" fill="white"/>
<path fill-rule="evenodd" clip-rule="evenodd" d="M169.869 116.771V130.899C175.418 135.197 179 141.941 179 149.51C179 162.463 168.514 173 155.626 173C147.549 173 140.416 168.862 136.216 162.585H86.7007C85.728 162.585 84.9389 161.792 84.9389 160.815C84.9389 159.836 85.728 159.044 86.7007 159.044H134.264C132.971 156.128 132.251 152.903 132.251 149.51C132.251 136.557 142.737 126.02 155.626 126.02C159.487 126.02 163.133 126.967 166.345 128.641V116.771C166.345 115.792 167.134 115 168.107 115C169.081 115 169.869 115.792 169.869 116.771ZM135.775 149.51C135.775 160.51 144.679 169.459 155.626 169.459C166.571 169.459 175.476 160.51 175.476 149.51C175.476 138.509 166.571 129.561 155.626 129.561C144.68 129.561 135.775 138.509 135.775 149.51Z" fill="white"/>
<path fill-rule="evenodd" clip-rule="evenodd" d="M138.389 149.249C138.389 139.771 146.087 132.059 155.551 132.059C165.013 132.059 172.712 139.771 172.712 149.249C172.712 158.728 165.014 166.439 155.551 166.439C146.087 166.439 138.389 158.728 138.389 149.249ZM157.298 162.07C157.298 162.349 157.231 162.612 157.115 162.846C163.403 162.125 168.405 157.114 169.125 150.816C168.892 150.932 168.629 150.999 168.351 150.999H166.222C165.258 150.999 164.475 150.216 164.475 149.249C164.475 148.282 165.258 147.499 166.222 147.499H168.351C168.629 147.499 168.892 147.566 169.125 147.682C168.406 141.384 163.403 136.373 157.115 135.652C157.231 135.886 157.298 136.149 157.298 136.428V138.56C157.298 139.527 156.515 140.31 155.551 140.31C154.586 140.31 153.803 139.527 153.803 138.56V136.428C153.803 136.149 153.87 135.886 153.986 135.652C147.698 136.373 142.696 141.384 141.976 147.682C142.209 147.566 142.472 147.499 142.75 147.499H144.878C145.844 147.499 146.625 148.282 146.625 149.249C146.625 150.216 145.844 150.999 144.878 150.999H142.75C142.472 150.999 142.209 150.932 141.976 150.816C142.696 157.114 147.698 162.125 153.986 162.846C153.87 162.612 153.803 162.349 153.803 162.07V159.938C153.803 158.972 154.586 158.188 155.551 158.188C156.515 158.188 157.298 158.972 157.298 159.938V162.07Z" fill="white"/>
<path d="M159.638 147.829H157.462V145.957C157.462 144.949 156.652 144.131 155.654 144.131C154.656 144.131 153.847 144.949 153.847 145.957V149.654C153.847 150.663 154.656 151.48 155.654 151.48H159.638C160.636 151.48 161.445 150.663 161.445 149.654C161.445 148.645 160.636 147.829 159.638 147.829Z" fill="white"/>
</g>
</g>
<defs>
<filter id="filter0_d" x="0" y="0" width="238" height="238" filterUnits="userSpaceOnUse" color-interpolation-filters="sRGB">
<feFlood flood-opacity="0" result="BackgroundImageFix"/>
<feColorMatrix in="SourceAlpha" type="matrix" values="0 0 0 0 0 0 0 0 0 0 0 0 0 0 0 0 0 0 127 0"/>
<feOffset dy="4"/>
<feGaussianBlur stdDeviation="6"/>
<feColorMatrix type="matrix" values="0 0 0 0 0.270588 0 0 0 0 0.513726 0 0 0 0 0.945098 0 0 0 0.2 0"/>
<feBlend mode="normal" in2="BackgroundImageFix" result="effect1_dropShadow"/>
<feBlend mode="normal" in="SourceGraphic" in2="effect1_dropShadow" result="shape"/>
</filter>
<linearGradient id="paint0_linear" x1="12" y1="8" x2="249.606" y2="38.5793" gradientUnits="userSpaceOnUse">
<stop stop-color="#FF9B62"/>
<stop offset="1" stop-color="#FF6262"/>
</linearGradient>
</defs>
</svg>
