<?xml version="1.0" encoding="UTF-8"?>
<svg width="512px" height="512px" viewBox="0 0 512 512" version="1.1" xmlns="http://www.w3.org/2000/svg" xmlns:xlink="http://www.w3.org/1999/xlink">
    <!-- Generator: Sketch 51.3 (57544) - http://www.bohemiancoding.com/sketch -->
    <title>Mail</title>
    <desc>Created with Sketch.</desc>
    <defs></defs>
    <g id="Mail" stroke="none" stroke-width="1" fill="none" fill-rule="evenodd">
        <g id="mail" transform="translate(28.000000, 95.000000)" fill="#4583F1" fill-rule="nonzero">
            <g id="Group" transform="translate(79.000000, 157.000000)">
                <path d="M289.703607,93.2352542 C287.89613,93.2352542 286.088653,92.5797579 284.67794,91.2541985 L200.123298,12.6237676 C197.169617,9.88524939 197.022667,5.26764165 199.800009,2.33975787 C202.577352,-0.61725908 207.206255,-0.748358354 210.189327,2.01929298 L294.743968,80.649724 C297.69765,83.3882421 297.844599,88.0058499 295.067257,90.9337337 C293.612459,92.4632252 291.672728,93.2352542 289.703607,93.2352542 Z" id="Shape"></path>
                <path d="M7.45803769,93.2352542 C5.50361166,93.2352542 3.54918564,92.4632252 2.09438732,90.9337337 C-0.682954927,88.0058499 -0.536005602,83.3882421 2.41767583,80.649724 L87.0017074,2.01929298 C89.9700838,-0.719225182 94.6283774,-0.602692494 97.3910247,2.33975787 C100.168367,5.26764165 100.021418,9.88524939 97.0677362,12.6237676 L12.4837046,91.2541985 C11.0729911,92.5797579 9.26551439,93.2352542 7.45803769,93.2352542 Z" id="Shape"></path>
            </g>
            <path d="M419.240036,323 L36.7599639,323 C16.4978718,323 0,306.576768 0,286.373702 L0,36.6262984 C0,16.4232322 16.4978718,0 36.7599639,0 L419.240036,0 C439.502128,0 456,16.4232322 456,36.6262984 L456,286.373702 C456,306.576768 439.502128,323 419.240036,323 Z M36.7599639,14.6505193 C24.5997678,14.6505193 14.7039856,24.5103189 14.7039856,36.6262984 L14.7039856,286.373702 C14.7039856,298.489681 24.5997678,308.349481 36.7599639,308.349481 L419.240036,308.349481 C431.400232,308.349481 441.296014,298.489681 441.296014,286.373702 L441.296014,36.6262984 C441.296014,24.5103189 431.400232,14.6505193 419.240036,14.6505193 L36.7599639,14.6505193 Z" id="Shape"></path>
            <path d="M228.621971,200 C218.830239,200 209.038506,196.755922 201.587955,190.282444 L12.5265362,25.8619883 C9.46385898,23.2050735 9.13992197,18.566482 11.8050401,15.4985527 C14.499607,12.4453026 19.1377961,12.1663999 22.2004732,14.7939565 L211.261892,179.199733 C220.67079,187.375985 236.573152,187.375985 245.967325,179.199733 L434.793154,15.0581801 C437.841106,12.4012653 442.479295,12.6948471 445.188587,15.7627763 C447.853705,18.8307055 447.544492,23.454618 444.481815,26.1262119 L255.655987,190.267765 C248.190711,196.755922 238.413703,200 228.621971,200 Z" id="Shape"></path>
        </g>
    </g>
</svg>