<?xml version="1.0" encoding="UTF-8"?>
<svg width="512px" height="512px" viewBox="0 0 512 512" version="1.1" xmlns="http://www.w3.org/2000/svg" xmlns:xlink="http://www.w3.org/1999/xlink">
    <!-- Generator: Sketch 51.3 (57544) - http://www.bohemiancoding.com/sketch -->
    <title>Meeting</title>
    <desc>Created with Sketch.</desc>
    <defs></defs>
    <g id="Meeting" stroke="none" stroke-width="1" fill="none" fill-rule="evenodd">
        <g id="interview" transform="translate(26.000000, 26.000000)" fill="#4583F1" fill-rule="nonzero">
            <path d="M56.363,444.637 C54.689,442.9621 52.367,442 50,442 C47.624,442 45.311,442.9621 43.637,444.637 C41.954,446.311 41,448.633 41,451 C41,453.367 41.954,455.689 43.637,457.3621 C45.311,459.0361 47.6249,460 50,460 C52.367,460 54.689,459.037 56.363,457.3621 C58.0361,455.689 59,453.367 59,451 C59,448.633 58.037,446.311 56.363,444.637 Z" id="Shape"></path>
            <path d="M335.3621,380.637 C333.689,378.9621 331.367,378 329,378 C326.633,378 324.311,378.9621 322.637,380.637 C320.963,382.3119 320,384.633 320,387 C320,389.376 320.9621,391.689 322.637,393.3621 C324.311,395.0361 326.633,396 329,396 C331.367,396 333.689,395.037 335.3621,393.3621 C337.0361,391.689 338,389.3751 338,387 C338,384.633 337.037,382.311 335.3621,380.637 Z" id="Shape"></path>
            <path d="M431.022695,144.658 C437.821172,137.818 442.03125,128.3923 442.03125,118 L442.03125,110.8 C442.03125,89.9569 425.103789,73 404.296875,73 C383.489961,73 366.5625,89.9569 366.5625,110.8 L366.5625,118 C366.5625,128.3941 370.773477,137.8198 377.57375,144.6607 C362.827695,152.7733 352.11832,167.3713 349.317891,184.6 L308.164062,184.6 C293.302109,184.6 281.210937,196.7122 281.210937,211.6 C281.210937,214.7554 281.758984,217.783 282.75625,220.6 L177.24375,220.6 C178.241016,217.783 178.789062,214.7554 178.789062,211.6 C178.789062,196.7122 166.697891,184.6 151.835937,184.6 L110.682109,184.6 C107.88168,167.3713 97.1723047,152.7724 82.42625,144.6607 C89.2265234,137.8198 93.4375,128.3941 93.4375,118 L93.4375,110.8 C93.4375,89.9569 76.5100391,73 55.703125,73 C34.8962109,73 17.96875,89.9569 17.96875,110.8 L17.96875,118 C17.96875,128.3923 22.1788281,137.818 28.9773047,144.658 C11.7237109,154.1503 0,172.5274 0,193.6 L0,283.6 L0,294.5503 C0,322.7545 22.9056641,345.7 51.0608984,345.7 L122.1875,345.7 L122.1875,431.65 C122.1875,435.3022 122.888281,438.7915 124.148789,442 L88.6461328,442 C83.6849609,442 79.6617578,446.0302 79.6617578,451 C79.6617578,455.9698 83.6849609,460 88.6461328,460 L409.98668,460 C414.947852,460 418.971055,455.9698 418.971055,451 C418.971055,446.0302 414.947852,442 409.98668,442 L335.851211,442 C337.111719,438.7915 337.8125,435.3022 337.8125,431.65 L337.8125,421.3 C337.8125,416.3302 333.789297,412.3 328.828125,412.3 C323.866953,412.3 319.84375,416.3302 319.84375,421.3 L319.84375,431.65 C319.84375,437.3569 315.208711,442 309.511719,442 C303.814727,442 299.179687,437.3569 299.179687,431.65 L299.179687,318.025 C299.179687,304.0057 310.565586,292.6 324.560547,292.6 L357.578125,292.6 L364.765625,292.6 L442.03125,292.6 L442.03125,294.5503 C442.03125,312.8293 427.186367,327.7 408.939102,327.7 L328.828125,327.7 C323.866953,327.7 319.84375,331.7302 319.84375,336.7 L319.84375,351.1 C319.84375,356.0698 323.866953,360.1 328.828125,360.1 C333.789297,360.1 337.8125,356.0698 337.8125,351.1 L337.8125,345.7 L408.939102,345.7 C437.094336,345.7 460,322.7545 460,294.5503 L460,283.6 L460,193.6 C460,172.5274 448.276289,154.1503 431.022695,144.658 Z M384.53125,110.8 C384.53125,99.8821 393.39793,91 404.296875,91 C415.19582,91 424.0625,99.8821 424.0625,110.8 L424.0625,118 C424.0625,128.9179 415.19582,137.8 404.296875,137.8 C393.39793,137.8 384.53125,128.9179 384.53125,118 L384.53125,110.8 Z M35.9375,110.8 C35.9375,99.8821 44.8041797,91 55.703125,91 C66.6020703,91 75.46875,99.8821 75.46875,110.8 L75.46875,118 C75.46875,128.9179 66.6020703,137.8 55.703125,137.8 C44.8041797,137.8 35.9375,128.9179 35.9375,118 L35.9375,110.8 Z M17.96875,193.6 C17.96875,172.7569 34.8962109,155.8 55.703125,155.8 C76.5100391,155.8 93.4375,172.7569 93.4375,193.6 C93.4375,198.5698 97.4607031,202.6 102.421875,202.6 L151.835937,202.6 C156.789922,202.6 160.820312,206.6374 160.820312,211.6 C160.820312,216.5626 156.789922,220.6 151.835937,220.6 L99.5154297,220.6 C85.2302734,220.6 72.1660937,212.7637 65.4197266,200.1493 C63.0775,195.7681 57.6311719,194.1184 53.2575781,196.4665 C48.8839844,198.8128 47.2380469,204.2677 49.5811719,208.6498 C58.5754297,225.4681 75.2396484,236.4868 93.9397266,238.3264 C93.6144922,239.257 93.4375,240.2587 93.4375,241.3 L93.4375,274.6 L17.96875,274.6 L17.96875,193.6 Z M128.819766,274.6 L111.40625,274.6 L111.40625,241.3 C111.40625,240.3595 111.2625,239.4523 110.994766,238.6 L128.819766,238.6 C125.751602,243.8992 123.984375,250.0453 123.984375,256.6 C123.984375,263.1547 125.750703,269.3008 128.819766,274.6 Z M160.820312,431.65 C160.820312,437.3569 156.185273,442 150.488281,442 C144.791289,442 140.15625,437.3569 140.15625,431.65 L140.15625,336.7 C140.15625,331.7302 136.133047,327.7 131.171875,327.7 L51.0608984,327.7 C32.8136328,327.7 17.96875,312.8293 17.96875,294.5503 L17.96875,292.6 L95.234375,292.6 L102.421875,292.6 L135.439453,292.6 C149.434414,292.6 160.820312,304.0057 160.820312,318.025 L160.820312,431.65 Z M203.046875,442 L176.827773,442 C178.08918,438.7915 178.789062,435.3022 178.789062,431.65 L178.789062,318.025 C178.789062,308.5354 175.726289,299.7532 170.549492,292.6 L203.046875,292.6 L203.046875,442 Z M238.984375,442 L221.015625,442 L221.015625,292.6 L238.984375,292.6 L238.984375,442 Z M283.172227,442 L256.953125,442 L256.953125,292.6 L289.450508,292.6 C284.274609,299.7532 281.210937,308.5354 281.210937,318.025 L281.210937,431.65 C281.210937,435.3022 281.911719,438.7915 283.172227,442 Z M300.078125,274.6 L159.921875,274.6 C150.013906,274.6 141.953125,266.5252 141.953125,256.6 C141.953125,246.6748 150.013906,238.6 159.921875,238.6 L300.078125,238.6 C309.986094,238.6 318.046875,246.6748 318.046875,256.6 C318.046875,266.5252 309.986094,274.6 300.078125,274.6 Z M348.59375,241.3 L348.59375,274.6 L331.180234,274.6 C334.248398,269.3008 336.015625,263.1547 336.015625,256.6 C336.015625,250.0453 334.249297,243.8992 331.180234,238.6 L349.005234,238.6 C348.7375,239.4523 348.59375,240.3595 348.59375,241.3 Z M442.03125,274.6 L366.5625,274.6 L366.5625,241.3 C366.5625,240.2587 366.385508,239.257 366.060273,238.3264 C384.760352,236.4868 401.42457,225.4681 410.418828,208.6498 C412.761953,204.2677 411.116016,198.8128 406.742422,196.4665 C402.367031,194.1193 396.923398,195.7699 394.580273,200.1493 C387.833906,212.7637 374.769727,220.6 360.48457,220.6 L308.164062,220.6 C303.210078,220.6 299.179687,216.5626 299.179687,211.6 C299.179687,206.6374 303.210078,202.6 308.164062,202.6 L357.578125,202.6 C362.539297,202.6 366.5625,198.5698 366.5625,193.6 C366.5625,172.7569 383.489961,155.8 404.296875,155.8 C425.103789,155.8 442.03125,172.7569 442.03125,193.6 L442.03125,274.6 Z" id="Shape"></path>
            <path d="M294.088235,0 L164.911765,0 C150.072618,0 138,12.1192461 138,27.0157068 L138,115.267016 C138,130.163476 150.072618,142.282723 164.911765,142.282723 L196.180544,142.282723 L223.156,169.362366 C224.908853,171.120188 227.203529,172 229.5,172 C231.796471,172 234.091147,171.120188 235.843103,169.362366 L262.819456,142.282723 L294.088235,142.282723 C308.927382,142.282723 321,130.163476 321,115.267016 L321,27.0157068 C321,12.1192461 308.927382,0 294.088235,0 Z M303.058824,115.267016 C303.058824,120.232503 299.034618,124.272251 294.088235,124.272251 L259.102941,124.272251 C256.723941,124.272251 254.442721,125.221403 252.759838,126.909885 L229.5,150.25866 L206.240162,126.908984 C204.557279,125.221403 202.276059,124.272251 199.897059,124.272251 L164.911765,124.272251 C159.965382,124.272251 155.941176,120.232503 155.941176,115.267016 L155.941176,27.0157068 C155.941176,22.0502199 159.965382,18.0104712 164.911765,18.0104712 L294.088235,18.0104712 C299.034618,18.0104712 303.058824,22.0502199 303.058824,27.0157068 L303.058824,115.267016 Z" id="Shape"></path>
            <path d="M194.3621,60.637 C192.689,58.954 190.367,58 188,58 C185.633,58 183.311,58.954 181.637,60.637 C179.963,62.311 179,64.633 179,67 C179,69.367 179.9621,71.689 181.637,73.363 C183.311,75.037 185.633,76 188,76 C190.367,76 192.689,75.037 194.3621,73.363 C196.0361,71.689 197,69.367 197,67 C197,64.633 196.037,62.311 194.3621,60.637 Z" id="Shape"></path>
            <path d="M235.3621,60.637 C233.689,58.9639 231.367,58 229,58 C226.633,58 224.311,58.963 222.637,60.637 C220.963,62.311 220,64.633 220,67 C220,69.367 220.9621,71.689 222.637,73.363 C224.311,75.037 226.633,76 229,76 C231.367,76 233.689,75.037 235.3621,73.363 C237.0361,71.689 238,69.367 238,67 C238,64.633 237.037,62.311 235.3621,60.637 Z" id="Shape"></path>
            <path d="M278.3621,60.637 C276.689,58.954 274.367,58 272,58 C269.633,58 267.311,58.954 265.637,60.637 C263.963,62.311 263,64.633 263,67 C263,69.367 263.9621,71.689 265.637,73.363 C267.311,75.037 269.633,76 272,76 C274.367,76 276.689,75.037 278.3621,73.363 C280.0361,71.689 281,69.367 281,67 C281,64.633 280.037,62.311 278.3621,60.637 Z" id="Shape"></path>
        </g>
    </g>
</svg>