<?xml version="1.0" encoding="UTF-8"?>
<svg width="512px" height="512px" viewBox="0 0 512 512" version="1.1" xmlns="http://www.w3.org/2000/svg" xmlns:xlink="http://www.w3.org/1999/xlink">
    <!-- Generator: Sketch 51.3 (57544) - http://www.bohemiancoding.com/sketch -->
    <title>Options</title>
    <desc>Created with Sketch.</desc>
    <defs></defs>
    <g id="Options" stroke="none" stroke-width="1" fill="none" fill-rule="evenodd">
        <path d="M256.5,495 C124.780087,495 18,388.219913 18,256.5 C18,124.780087 124.780087,18 256.5,18 C388.219913,18 495,124.780087 495,256.5 C495,388.219913 388.219913,495 256.5,495 Z M257,482 C381.264069,482 482,381.264069 482,257 C482,132.735931 381.264069,32 257,32 C132.735931,32 32,132.735931 32,257 C32,381.264069 132.735931,482 257,482 Z" id="Combined-Shape" fill="#4583F1"></path>
        <path d="M256.5,313 C225.295912,313 200,287.704088 200,256.5 C200,225.295912 225.295912,200 256.5,200 C287.704088,200 313,225.295912 313,256.5 C313,287.704088 287.704088,313 256.5,313 Z M256.5,307 C284.39038,307 307,284.39038 307,256.5 C307,228.60962 284.39038,206 256.5,206 C228.60962,206 206,228.60962 206,256.5 C206,284.39038 228.60962,307 256.5,307 Z" id="Combined-Shape" fill="#4583F1"></path>
        <path d="M119.5,313 C88.2959116,313 63,287.704088 63,256.5 C63,225.295912 88.2959116,200 119.5,200 C150.704088,200 176,225.295912 176,256.5 C176,287.704088 150.704088,313 119.5,313 Z M119.5,307 C147.39038,307 170,284.39038 170,256.5 C170,228.60962 147.39038,206 119.5,206 C91.6096201,206 69,228.60962 69,256.5 C69,284.39038 91.6096201,307 119.5,307 Z" id="Combined-Shape-Copy-2" fill="#4583F1"></path>
        <path d="M393.5,313 C362.295912,313 337,287.704088 337,256.5 C337,225.295912 362.295912,200 393.5,200 C424.704088,200 450,225.295912 450,256.5 C450,287.704088 424.704088,313 393.5,313 Z M393.5,307 C421.39038,307 444,284.39038 444,256.5 C444,228.60962 421.39038,206 393.5,206 C365.60962,206 343,228.60962 343,256.5 C343,284.39038 365.60962,307 393.5,307 Z" id="Combined-Shape-Copy" fill="#4583F1"></path>
    </g>
</svg>