<svg width="57" height="57" viewBox="0 0 57 57" fill="none" xmlns="http://www.w3.org/2000/svg">
<path d="M34.5117 21.1523C33.8972 21.1523 33.3984 21.6511 33.3984 22.2656C33.3984 22.8802 33.8972 23.3789 34.5117 23.3789C35.1262 23.3789 35.625 22.8802 35.625 22.2656C35.625 21.6511 35.1262 21.1523 34.5117 21.1523Z" fill="#4583F1"/>
<path d="M55.6953 49.3984L40.8353 34.5383C43.2561 30.8919 44.5312 26.6692 44.5312 22.2656C44.5312 9.98836 34.5429 0 22.2656 0C9.98836 0 0 9.98836 0 22.2656C0 34.5429 9.98836 44.5312 22.2656 44.5312C26.6693 44.5312 30.892 43.256 34.5383 40.8354L38.6458 44.9428C38.6463 44.9434 38.6469 44.9439 38.6476 44.9446L49.3983 55.6953C50.2397 56.5367 51.3578 57 52.5469 57C53.736 57 54.854 56.5367 55.695 55.6957C56.5365 54.8548 57 53.7366 57 52.5469C57 51.3571 56.5365 50.2389 55.6953 49.3984ZM34.0148 38.4891L34.0145 38.4894C30.5782 40.9853 26.5156 42.3047 22.2656 42.3047C11.2161 42.3047 2.22656 33.3152 2.22656 22.2656C2.22656 11.2161 11.2161 2.22656 22.2656 2.22656C33.3152 2.22656 42.3047 11.2161 42.3047 22.2656C42.3047 26.5156 40.9853 30.5782 38.4892 34.0146C37.2405 35.735 35.7351 37.2405 34.0148 38.4891ZM36.3504 39.4984C37.5027 38.5558 38.5559 37.5025 39.4984 36.3504L42.6569 39.5089C41.6964 40.6426 40.6426 41.6965 39.5089 42.6569L36.3504 39.4984ZM54.1209 54.1209C53.7001 54.5418 53.1411 54.7734 52.5469 54.7734C51.9526 54.7734 51.3936 54.5418 50.9728 54.1209L41.0874 44.2356C42.2148 43.268 43.268 42.215 44.2354 41.0875L54.1212 50.9733C54.5418 51.3934 54.7734 51.9522 54.7734 52.5469C54.7734 53.1416 54.5418 53.7003 54.1209 54.1209Z" fill="#4583F1"/>
<path d="M22.2656 4.45312C12.4437 4.45312 4.45312 12.4437 4.45312 22.2656C4.45312 32.0875 12.4437 40.0781 22.2656 40.0781C32.0875 40.0781 40.0781 32.0875 40.0781 22.2656C40.0781 12.4437 32.0875 4.45312 22.2656 4.45312ZM22.2656 37.8516C13.6715 37.8516 6.67969 30.8597 6.67969 22.2656C6.67969 13.6715 13.6715 6.67969 22.2656 6.67969C30.8597 6.67969 37.8516 13.6715 37.8516 22.2656C37.8516 30.8597 30.8597 37.8516 22.2656 37.8516Z" fill="#4583F1"/>
<path d="M34.7416 17.4866C33.783 14.9916 32.1138 12.8583 29.9144 11.3176C27.6627 9.7401 25.0178 8.90625 22.2656 8.90625C21.6509 8.90625 21.1523 9.40478 21.1523 10.0195C21.1523 10.6343 21.6509 11.1328 22.2656 11.1328C26.8411 11.1328 31.0195 14.0071 32.6632 18.2853C32.8333 18.728 33.2552 18.9996 33.7027 18.9996C33.8354 18.9996 33.9704 18.9757 34.1017 18.9252C34.6756 18.7047 34.9622 18.0607 34.7416 17.4866Z" fill="#4583F1"/>
</svg>
